<?xml version="1.0" encoding="utf-8"?>
<!-- Generator: Adobe Illustrator 22.1.0, SVG Export Plug-In . SVG Version: 6.00 Build 0)  -->
<!DOCTYPE svg PUBLIC "-//W3C//DTD SVG 1.1//EN" "http://www.w3.org/Graphics/SVG/1.1/DTD/svg11.dtd">
<svg version="1.1" id="レイヤー_1" xmlns="http://www.w3.org/2000/svg" xmlns:xlink="http://www.w3.org/1999/xlink" x="0px"
	 y="0px" viewBox="0 0 756.8 97.5" style="enable-background:new 0 0 756.8 97.5;" xml:space="preserve">
<style type="text/css">
	.st0{fill:#FFFFFF;}
</style>
<title>アートボード 3</title>
<path class="st0" d="M41,0c3.4,0,6.5,0.6,9.3,1.7s5.1,2.6,7.1,4.6c2,1.9,3.5,4.2,4.5,6.7s1.6,5.3,1.6,8.2c0,4.5-0.9,8.4-2.8,11.7
	s-5,5.8-9.3,7.5v0.2c2.1,0.6,3.8,1.4,5.1,2.6c1.4,1.2,2.5,2.6,3.3,4.2c0.9,1.6,1.5,3.4,1.9,5.3c0.4,1.9,0.7,3.9,0.8,5.8
	c0.1,1.2,0.1,2.6,0.2,4.3c0.1,1.6,0.2,3.3,0.4,5c0.2,1.7,0.5,3.3,0.9,4.9c0.4,1.5,1,2.8,1.8,3.9H49c-0.9-2.4-1.5-5.3-1.7-8.7
	s-0.5-6.6-1-9.6c-0.6-4-1.8-6.9-3.6-8.8c-1.9-1.9-4.9-2.8-9.1-2.8H16.8v29.9H0V0H41L41,0z M35,34.6c3.9,0,6.8-0.9,8.7-2.6
	c1.9-1.7,2.9-4.5,2.9-8.4c0-3.7-1-6.4-2.9-8.1S38.9,13,35,13H16.6v21.6H35z M108.8,76.5v-7.7h-0.3c-1.9,3.2-4.4,5.5-7.5,7
	c-3.1,1.4-6.2,2.1-9.4,2.1c-4.1,0-7.4-0.5-10-1.6s-4.7-2.6-6.2-4.6s-2.6-4.4-3.2-7.2s-0.9-6-0.9-9.4V21h15.2v31.3
	c0,4.6,0.7,8,2.1,10.2c1.4,2.3,4,3.4,7.6,3.4c4.1,0,7.1-1.2,9-3.7S108,55.7,108,50V20.9h15.2v55.4h-14.4L108.8,76.5z M147.9,0v27.9
	h0.2c1.9-2.9,4.4-4.9,7.6-6.3c3.2-1.3,6.5-2,9.9-2c2.8,0,5.5,0.6,8.3,1.7c2.7,1.1,5.2,2.9,7.3,5.3c2.2,2.4,3.9,5.4,5.3,9.1
	c1.4,3.7,2,8.1,2,13.1c0,5.1-0.7,9.5-2,13.1c-1.4,3.7-3.1,6.7-5.3,9.1c-2.2,2.4-4.6,4.1-7.3,5.3c-2.7,1.1-5.5,1.7-8.3,1.7
	c-4.1,0-7.7-0.6-10.9-1.9c-3.2-1.3-5.6-3.5-7.3-6.5h-0.2v7.1h-14.5V0H147.9L147.9,0z M172.6,42.1c-0.5-2.1-1.3-4-2.4-5.7
	c-1.1-1.6-2.4-2.9-4-3.9s-3.6-1.4-5.8-1.4c-2.2,0-4.1,0.5-5.8,1.4c-1.6,1-3,2.3-4.1,3.9c-1.1,1.6-1.9,3.5-2.4,5.7
	c-0.5,2.1-0.8,4.4-0.8,6.8c0,2.3,0.2,4.5,0.8,6.6c0.5,2.1,1.3,4,2.4,5.7c1.1,1.6,2.4,2.9,4.1,3.9c1.6,1,3.6,1.4,5.8,1.4
	c2.3,0,4.2-0.5,5.8-1.4c1.6-1,2.9-2.3,4-3.9s1.9-3.5,2.4-5.7c0.5-2.1,0.8-4.4,0.8-6.6C173.3,46.5,173.1,44.3,172.6,42.1z
	 M216.5,93.1c-2.9,1.9-7,2.9-12.2,2.9c-1.6,0-3.1-0.1-4.7-0.2c-1.5-0.1-3.1-0.2-4.7-0.4V82.9c1.4,0.1,2.9,0.3,4.4,0.4
	c1.5,0.1,3,0.2,4.5,0.1c2-0.2,3.5-1,4.4-2.4c1-1.4,1.4-2.9,1.4-4.5c0-1.2-0.2-2.4-0.6-3.4l-19.4-52h16.2l12.5,38h0.2l12.1-38h15.9
	l-23.2,62.3C221.7,87.9,219.4,91.1,216.5,93.1L216.5,93.1z M270.1,0v31.7L300,0h21l-29.9,30.2l32.8,46.3h-21.1l-23.1-34.4l-9.6,9.8
	v24.7h-16.8V0H270.1L270.1,0z M328.5,38.2c0.2-3.6,1.1-6.5,2.7-8.9c1.6-2.4,3.6-4.3,6-5.7c2.4-1.4,5.2-2.4,8.2-3.1
	c3-0.6,6.1-0.9,9.2-0.9c2.8,0,5.6,0.2,8.5,0.6s5.5,1.2,7.8,2.3c2.4,1.1,4.3,2.7,5.8,4.8c1.5,2,2.3,4.7,2.3,8.1v28.8
	c0,2.5,0.1,4.9,0.4,7.2c0.3,2.3,0.8,4,1.5,5.1h-15.4c-0.3-0.9-0.5-1.7-0.7-2.6c-0.2-0.9-0.3-1.8-0.4-2.7c-2.4,2.5-5.3,4.3-8.6,5.3
	s-6.6,1.5-10.1,1.5c-2.6,0-5.1-0.3-7.4-1c-2.3-0.6-4.3-1.6-6-3s-3.1-3.1-4-5.1c-1-2.1-1.4-4.5-1.4-7.4c0-3.1,0.6-5.7,1.7-7.8
	c1.1-2,2.5-3.7,4.3-4.9s3.8-2.1,6-2.7c2.3-0.6,4.5-1.1,6.8-1.4c2.3-0.4,4.5-0.6,6.8-0.9c2.2-0.2,4.2-0.5,5.9-1
	c1.7-0.4,3.1-1.1,4.1-1.9c1-0.8,1.5-2,1.4-3.6c0-1.6-0.3-2.9-0.8-3.9s-1.3-1.7-2.1-2.3c-0.9-0.5-1.9-0.9-3.1-1.1
	c-1.2-0.2-2.4-0.3-3.8-0.3c-3,0-5.4,0.6-7.1,1.9c-1.7,1.3-2.7,3.4-3,6.4h-15.5V38.2z M363.6,49.4c-0.6,0.6-1.4,1-2.4,1.3
	s-2,0.6-3.1,0.8s-2.3,0.4-3.5,0.5s-2.4,0.3-3.6,0.5c-1.1,0.2-2.3,0.5-3.4,0.9s-2.1,0.8-2.9,1.4c-0.8,0.6-1.5,1.4-2,2.3
	c-0.5,0.9-0.8,2.1-0.8,3.5s0.2,2.5,0.8,3.4c0.5,0.9,1.2,1.7,2,2.2c0.9,0.5,1.9,0.9,3,1.1c1.1,0.2,2.3,0.3,3.5,0.3c3,0,5.3-0.5,7-1.5
	c1.6-1,2.9-2.2,3.6-3.6c0.8-1.4,1.3-2.8,1.4-4.2c0.2-1.4,0.3-2.6,0.3-3.4v-5.5H363.6z M388.9,12.5V0h15.2v12.5H388.9z M404.1,21.1
	v55.4h-15.2V21.1C388.9,21.1,404.1,21.1,404.1,21.1z M466.4,80.6c-0.6,2.9-1.9,5.5-3.9,8s-4.9,4.6-8.7,6.3s-8.9,2.6-15.2,2.6
	c-2.7,0-5.5-0.3-8.3-1s-5.4-1.7-7.7-3.2c-2.3-1.4-4.3-3.3-5.8-5.5c-1.5-2.3-2.4-4.9-2.6-8.1h15.1c0.7,2.9,2.1,4.8,4.2,6
	c2.1,1.1,4.5,1.7,7.2,1.7c4.3,0,7.4-1.3,9.4-3.9c2-2.6,2.9-5.8,2.8-9.8v-7.3h-0.2c-1.6,2.9-4,5.1-7,6.5s-6.2,2.1-9.6,2.1
	c-4.1,0-7.7-0.7-10.7-2.2s-5.5-3.5-7.4-6s-3.3-5.5-4.2-8.9s-1.3-7-1.3-10.8c0-3.6,0.5-7,1.6-10.3c1-3.3,2.6-6.3,4.6-8.8
	s4.5-4.6,7.5-6.1s6.4-2.3,10.2-2.3c3.6,0,6.8,0.7,9.6,2c2.8,1.4,5.1,3.6,6.9,6.9h0.2v-7.4h14.5V73C467.3,75.2,467,77.8,466.4,80.6
	L466.4,80.6z M445.5,62.2c1.6-0.9,3-2,4.1-3.4s1.9-3.1,2.4-4.9c0.5-1.8,0.8-3.7,0.8-5.7c0-2.3-0.2-4.4-0.6-6.5
	c-0.4-2-1.1-3.8-2.1-5.4c-1-1.6-2.3-2.8-4-3.8c-1.6-0.9-3.7-1.4-6.2-1.4c-2.1,0-4,0.4-5.5,1.3s-2.8,2-3.9,3.5c-1,1.5-1.8,3.1-2.3,5
	s-0.7,3.9-0.7,6c0,2,0.2,4,0.6,6c0.4,2,1.1,3.7,2,5.3c1,1.6,2.2,2.9,3.8,3.9s3.5,1.5,5.9,1.5C442,63.5,443.9,63,445.5,62.2
	L445.5,62.2z M477.8,12.5V0H493v12.5H477.8z M493,21.1v55.4h-15.2V21.1C477.8,21.1,493,21.1,493,21.1z M534.5,18.4
	c1.1-3.7,2.9-6.9,5.1-9.6c2.3-2.8,5.2-4.9,8.6-6.4c3.5-1.5,7.5-2.3,12-2.3c3.4,0,6.7,0.5,9.8,1.6s5.8,2.6,8.2,4.6s4.2,4.5,5.6,7.4
	c1.4,2.9,2.1,6.2,2.1,9.9c0,3.8-0.6,7-1.8,9.8c-1.2,2.7-2.8,5.1-4.8,7.2c-2,2.1-4.3,4-6.8,5.7s-5.1,3.4-7.7,5.1
	c-2.6,1.7-5.1,3.5-7.5,5.4s-4.6,4.2-6.4,6.8h35.5v13.1h-55.1c0-4.4,0.6-8.1,1.9-11.4c1.3-3.2,2.9-6.1,5.1-8.6c2.1-2.5,4.7-4.9,7.6-7
	c2.9-2.1,6-4.3,9.2-6.5c1.6-1.1,3.4-2.3,5.3-3.5c1.9-1.2,3.6-2.5,5.1-3.9s2.8-3,3.9-4.8c1-1.8,1.6-3.8,1.6-6.1
	c0-3.6-1.1-6.5-3.2-8.5s-4.8-3.1-8.1-3.1c-2.2,0-4.1,0.5-5.6,1.6c-1.5,1-2.8,2.4-3.7,4.1s-1.6,3.5-2,5.6c-0.4,2-0.6,4.1-0.6,6.1
	h-14.6C532.9,26,533.4,22.1,534.5,18.4L534.5,18.4z M595.3,20.3c1.5-5,3.4-9,6-12c2.5-3,5.4-5.1,8.7-6.4S616.8,0,620.6,0
	s7.3,0.6,10.7,1.9c3.3,1.3,6.3,3.4,8.8,6.4s4.5,7,6,12s2.2,11.1,2.2,18.4c0,7.5-0.7,13.8-2.2,18.8s-3.5,9.1-6,12.1s-5.5,5.1-8.8,6.4
	c-3.3,1.3-6.9,1.9-10.7,1.9c-3.7,0-7.2-0.6-10.6-1.9c-3.3-1.3-6.2-3.4-8.7-6.4s-4.5-7-6-12.1c-1.5-5-2.2-11.3-2.2-18.8
	C593.1,31.4,593.8,25.3,595.3,20.3z M608.5,46.5c0.1,3,0.6,6,1.3,8.8c0.8,2.8,1.9,5.2,3.6,7.2c1.6,2,4,3,7.1,3s5.6-1,7.2-3
	c1.7-2,2.9-4.4,3.6-7.2c0.8-2.8,1.2-5.8,1.3-8.8s0.2-5.6,0.2-7.8c0-1.3,0-2.8-0.1-4.7c0-1.8-0.2-3.7-0.4-5.6
	c-0.3-1.9-0.6-3.8-1.1-5.7c-0.5-1.9-1.2-3.6-2.1-5.1c-0.9-1.5-2.1-2.7-3.5-3.6s-3.2-1.4-5.3-1.4s-3.8,0.5-5.2,1.4s-2.5,2.1-3.4,3.6
	s-1.6,3.2-2.1,5.1s-0.9,3.8-1.1,5.7c-0.2,1.9-0.3,3.8-0.4,5.6c0,1.8-0.1,3.4-0.1,4.7C608.3,40.8,608.4,43.4,608.5,46.5z M675.1,76.5
	V27.9h-18.9V16.4c2.6,0.1,5.2-0.1,7.7-0.6s4.7-1.3,6.6-2.5c2-1.2,3.6-2.7,5-4.7c1.4-1.9,2.3-4.3,2.7-7.2h12.1v75.1H675.1L675.1,76.5
	z M720.8,63.8c1.8,1.9,4,2.8,6.6,2.8c2.8,0,5.1-0.8,6.9-2.4c1.8-1.6,3.2-3.6,4.3-5.9c1.1-2.3,1.8-4.8,2.3-7.5c0.5-2.6,0.8-5,0.9-7.1
	l-0.2-0.2c-2.1,3-4.5,5.1-7.3,6.4c-2.8,1.3-6,1.9-9.6,1.9c-3.2,0-6.4-0.7-9.4-2.1c-3.1-1.4-5.7-3.3-7.8-5.6c-2-2.3-3.5-4.9-4.4-7.8
	c-0.9-2.9-1.4-5.9-1.4-8.9c0-3.9,0.6-7.5,1.9-10.8c1.3-3.3,3-6.2,5.4-8.7c2.3-2.5,5.1-4.4,8.3-5.8C720.5,0.7,724.1,0,728,0
	c5.7,0,10.4,1.1,14.1,3.4s6.6,5.2,8.8,8.9c2.2,3.7,3.8,7.8,4.6,12.5c0.9,4.6,1.3,9.3,1.3,14c0,4.6-0.5,9.3-1.6,13.9
	s-2.8,8.8-5.1,12.6c-2.4,3.8-5.4,6.8-9.1,9.1s-8.3,3.5-13.6,3.5c-3.2,0-6.2-0.4-9-1.3s-5.3-2.2-7.4-4c-2.1-1.8-3.9-4-5.3-6.5
	c-1.4-2.6-2.3-5.5-2.7-8.8h14.5C717.8,59.8,719,61.9,720.8,63.8L720.8,63.8z M733.6,39.3c1.5-0.8,2.8-1.8,3.8-3.1s1.8-2.8,2.3-4.4
	c0.5-1.7,0.8-3.4,0.8-5.3c0-1.7-0.3-3.4-0.8-5.1s-1.3-3.2-2.4-4.5c-1-1.3-2.3-2.4-3.8-3.2c-1.5-0.8-3.2-1.2-5.1-1.2
	c-1.8,0-3.4,0.4-4.8,1.2c-1.4,0.8-2.6,1.8-3.6,3.1s-1.8,2.8-2.3,4.4s-0.8,3.3-0.8,5c0,1.8,0.2,3.5,0.7,5.2c0.5,1.7,1.2,3.2,2.1,4.5
	s2.1,2.4,3.6,3.2s3.2,1.2,5.1,1.2C730.3,40.4,732.1,40,733.6,39.3L733.6,39.3z"/>
</svg>
